<?xml version="1.0" encoding="UTF-8"?><svg id="Capa_1" xmlns="http://www.w3.org/2000/svg" viewBox="0 0 587.47 468.33"><defs><style>.cls-1{fill:#eaeaea;stroke-width:0px;}.cls-2{fill:#fff;stroke:#000;stroke-miterlimit:10;}</style></defs><path class="cls-1" d="M207.4,0c2.41.38,4.88.55,7.23,1.17,15.8,4.18,26.65,13.65,30.58,29.84,2.88,11.84-.23,22.53-7.62,32.08-3.31,4.27-7.02,8.15-11.15,11.64-.7.59-1.39,1.19-2.09,1.77-5.18,4.35-7.93,9.96-8.27,16.67-.23,4.6-.21,9.22-.23,13.84-.03,7.5.04,15-.02,22.49,0,1.27.41,1.74,1.63,1.93,5.13.79,10.23,1.74,15.09,3.68,12.84,5.12,23.28,13.43,31.57,24.36,4.49,5.92,8.41,12.28,12.55,18.46,2.38,3.55,4.79,7.09,7,10.75,5.22,8.66,12.44,15.2,21.04,20.32,6.36,3.79,12.75,7.51,19.12,11.26.36.21.72.44,1.19.72-7.29,8.54-12.98,18.05-18.77,27.59-.46-.23-.88-.42-1.29-.64-29.28-15.84-58.56-31.68-87.84-47.52-.17-.09-.34-.18-.51-.28-4.41-2.55-3.47-2.7-8.58-.06-52.82,27.35-104.73,56.38-157.07,84.63-2.23,1.2-3.44,2.64-2.91,5.24.12.6.05,1.25.05,1.87-.02,14.76-.04,29.51-.07,44.27-.01,5.9,1.45,7.86,7.21,9.12,2.28.5,4.66.75,7,.82,5.14.16,10.28.12,15.43.19,1.39.02,2.01-.8,2.56-1.91,2.58-5.21,3.27-10.62,2.47-16.39-.46-3.34-.62-6.84-.16-10.16.78-5.65,5.75-9.96,11.43-10.61,5.92-.68,11.37,2.32,13.8,7.59.04.09.08.18.11.26,4.19,9.51,4.15,7.97,3.04,20.91-.23,2.68-.23,5.37-.31,8.06-.05,1.44.71,2.11,2.13,2.1,1.06,0,2.11.03,3.17.03,15.67,0,31.34,0,47.01,0,.57,0,1.15,0,1.91,0-.56,1.75-1.07,3.38-1.63,4.98-.08.22-.48.39-.76.45-.37.08-.77.02-1.15.02-15.05,0-30.09,0-45.14,0-1.43,0-2.87-.14-4.3-.25-.93-.07-1.52.18-1.48,1.23.28,8.06.28,16.15,2.12,24.07.28,1.2,1.05,2.29,1.59,3.43.34.72.93,1.43.97,2.17.2,4.13.29,8.26.35,12.39.02,1.19-.13,2.4-.3,3.59-.33,2.27-1.31,3.33-3.55,3.74-1.03.19-2.1.22-3.16.21-8.7,0-17.4-.02-26.1-.07-1.43,0-2.89-.07-4.29-.35-1.8-.36-2.87-1.66-2.95-3.47-.2-4.8-.29-9.6-.36-14.4-.01-.9.11-1.86.42-2.69.3-.82.76-1.87,1.45-2.19,1.54-.72,1.92-1.98,2.28-3.39.86-3.39,2.03-6.73,2.55-10.18.63-4.2-.49-8.3-1.71-12.32-.37-1.23-1.36-1.5-2.5-1.5-3.85,0-7.69,0-11.54-.01-4.34,0-8.64-.36-12.81-1.67-6.51-2.05-9.51-5.77-9.82-12.61-.17-3.74.01-7.49.01-11.24,0-11.92,0-23.84-.01-35.76,0-.28-.03-.56-.07-1.05-.68.37-1.25.69-1.83.99-11.18,5.98-22.36,11.96-33.55,17.92-.84.45-1.76.8-2.68,1.03-2.04.51-3.3-.16-3.8-2.22-.5-2.04-.93-4.15-1.03-6.24-.89-19.2,7.11-33.63,23.91-42.81,7.35-4.02,15.28-6.99,22.91-10.49,25.03-11.5,49.44-24.21,73.08-38.35,5.58-3.34,11.07-6.89,15.15-12.06,2.76-3.49,5.27-7.22,7.6-11.02,5.39-8.81,10.61-17.73,16.89-25.96,8.49-11.13,18.99-19.66,32.16-24.7,4.64-1.77,9.41-3.04,14.34-3.67,2.29-.29,2.48-.45,2.48-2.8-.02-10.48-.11-20.96-.09-31.43,0-2.88.14-5.77.51-8.62.76-5.86,3.72-10.66,7.87-14.72,3.02-2.96,6.23-5.73,9.28-8.65,4.77-4.58,8.67-9.79,11.02-16.02,4.37-11.57,1.59-21.87-6.14-30.98-7.44-8.76-17.24-11.95-28.52-11.1-8.82.67-16.09,4.31-21.99,10.93-3.32,3.72-6.82,7.33-10.55,10.62-2.26,1.99-5.03,3.51-7.76,4.84-2.13,1.04-3.77.22-4.58-1.59-.6-1.34-.39-2.56.62-3.57.64-.64,1.37-1.23,2.16-1.67,4.29-2.4,7.83-5.69,11.26-9.15,3.41-3.44,6.83-6.91,10.51-10.05,5.57-4.74,12.33-6.7,19.49-7.43.56-.06,1.12-.18,1.69-.27,1.35,0,2.69,0,4.04,0Z"/><path class="cls-2" d="M544.05,354.88c0,.66,0,1.09,0,1.51.12,12.98.25,25.95.38,38.93.04,4.05-.24,8.04-1.14,12.02-.94,4.14-3.48,6.6-7.31,8-3.75,1.36-7.66,1.84-11.61,1.91-4.71.09-9.42.04-14.13.08-2.65.02-3.02.32-3.57,2.92-.89,4.19-1.89,8.39-.97,12.69.86,4.04,1.79,8.07,4.55,11.38,1.08,1.3,1.49,2.83,1.46,4.55-.08,4.08-.02,8.17-.03,12.26,0,.86-.04,1.73-.16,2.58-.35,2.46-1.47,3.56-3.95,3.81-1.24.13-2.5.16-3.74.16-8.32.01-16.63.01-24.95,0-5.5,0-6.56-1.09-6.73-6.53-.1-3.17-.45-6.33-.46-9.5,0-1.7.14-3.53.77-5.08,3.2-7.84,4.38-15.99,4.18-24.4-.03-1.39-.03-2.79-.06-4.18,0-.14-.05-.28-.11-.67-.61,0-1.26,0-1.91,0-65.71,0-131.43-.01-197.14-.03-.95,0-1.91-.15-2.86-.24-1.01-.1-1.57.26-1.53,1.35.16,4.03.13,8.07.51,12.08.41,4.34,1.14,8.66,1.85,12.97.13.78.88,1.44,1.24,2.21.45.96,1.07,1.96,1.13,2.98.23,3.84.3,7.68.34,11.53.02,1.34-.17,2.68-.33,4.02-.22,1.84-1.28,3.06-3.08,3.33-1.7.26-3.44.29-5.16.3-7.98.02-15.96.01-23.93-.03-1.58,0-3.18-.03-4.73-.3-1.72-.3-2.95-1.48-3-3.24-.16-5.46-.2-10.93-.18-16.4,0-1.7.89-2.99,2.51-3.73.35-.16.73-.54.82-.89,1.08-3.83,2.37-7.63,3.06-11.54.78-4.39-.4-8.68-1.68-12.89-.35-1.14-1.27-1.47-2.38-1.47-3.51,0-7.02-.01-10.53-.02-5.06,0-10.06-.38-14.93-1.98-6.07-2-8.58-6.48-8.84-12.47-.16-3.74.05-7.49.05-11.24,0-11.87-.01-23.74-.03-35.62,0-.28-.05-.56-.09-1.07-.9.5-1.67.95-2.45,1.37-10.97,5.86-21.94,11.72-32.93,17.56-.84.45-1.75.82-2.67,1.05-2.04.5-3.34-.17-3.79-2.24-.54-2.48-1.05-5.01-1.1-7.54-.38-18.46,7.54-32.4,23.67-41.27,7.3-4.01,15.18-6.97,22.77-10.46,25.52-11.72,50.34-24.74,74.48-39.09,9.39-5.58,16.4-13.2,21.94-22.55,5.16-8.71,10.63-17.28,16.52-25.51,8.26-11.55,19.08-20.08,32.46-25.17,4.68-1.78,9.5-3.08,14.49-3.65,1.98-.23,2.28-.54,2.28-2.88,0-8.89-.06-17.78-.05-26.67,0-3.75-.02-7.5.2-11.23.36-6.04,2.81-11.25,6.99-15.58,2.53-2.62,5.23-5.1,7.94-7.54,3.92-3.53,7.41-7.39,10.24-11.85,7.75-12.22,6.97-25.78-2.33-36.9-8.35-9.99-19.22-13.14-31.82-11.41-7.58,1.04-13.7,4.62-18.88,10.17-3.93,4.2-8,8.31-12.29,12.13-1.95,1.73-4.51,2.88-6.96,3.92-1.84.79-3.3-.08-4.01-1.74-.55-1.28-.41-2.48.58-3.46.64-.64,1.36-1.24,2.14-1.68,4.47-2.49,8.13-5.93,11.67-9.55,3.05-3.13,6.1-6.28,9.41-9.12,6.64-5.69,14.6-7.9,23.2-8.12,17.91-.45,34.59,11.14,39.75,27.87,4.04,13.1,1.14,24.94-7.26,35.59-3.41,4.32-7.16,8.32-11.5,11.7-6.59,5.13-9.73,11.87-9.78,20.1-.07,11.54-.01,23.07-.07,34.61,0,1.24.76,1.24,1.54,1.4,3.89.84,7.88,1.37,11.67,2.55,12.38,3.88,22.52,11.23,31.18,20.75,6.54,7.19,11.47,15.52,16.73,23.61,2.83,4.35,5.7,8.67,8.52,13.03,4.9,7.56,11.71,13.03,19.28,17.68,22.95,14.12,46.86,26.4,71.51,37.27,7.9,3.48,15.73,7.19,23.38,11.21,12.7,6.69,20.82,17.06,23.7,31.28,1.05,5.17,1.24,10.4.67,15.64-.12,1.08-.41,2.18-.81,3.19-.66,1.64-1.82,2.26-3.46,1.58-3.36-1.4-6.72-2.84-9.92-4.57-9.17-4.95-18.27-10.04-27.4-15.08-.24-.13-.51-.23-1.02-.45ZM210.64,378.5s.07,0,.1,0c0,6.63-.01,13.27,0,19.9,0,2.16-.01,4.33.15,6.48.18,2.32,1.31,4.17,3.58,4.96,1.98.69,4.03,1.53,6.08,1.64,6.66.36,13.35.45,20.02.52.68,0,1.69-.67,2.01-1.3,2.34-4.61,3.71-9.42,3.05-14.71-.45-3.56-.82-7.19-.65-10.76.29-6.03,4.59-10.71,10.47-12.04,5.66-1.28,11.5,1.15,14.34,6.19,3.23,5.75,5.27,11.76,4.17,18.59-.61,3.82-.57,7.75-.69,11.64-.06,1.76.49,2.2,2.24,2.27,1.25.05,2.5.05,3.75.05,63.26,0,126.52-.01,189.78-.01,1.63,0,3.26.08,4.89.19,2.2.15,2.76-.23,2.64-2.45-.17-3.21-.25-6.47-.86-9.61-1.55-8.02,1.32-14.92,5.05-21.65.37-.66.9-1.25,1.46-1.77,3.85-3.54,8.33-4.78,13.32-3.09,4.93,1.67,7.9,5.32,8.63,10.42.43,3.06.25,6.23.14,9.34-.21,5.63.21,11.12,2.33,16.42.62,1.55,1.47,2.19,3.09,2.18,4.37-.02,8.75.19,13.12.01,3.15-.13,6.32-.52,9.4-1.18,3.54-.76,5.63-3.19,6.1-6.83.22-1.71.34-3.45.35-5.17.02-14.13-.08-28.26.06-42.39.03-3.32-1.29-5.37-4.08-6.76-2.24-1.11-4.53-2.12-6.72-3.3-37.61-20.33-75.21-40.67-112.81-61.03-12.55-6.79-25.09-13.59-37.6-20.46-1.67-.92-3.04-.99-4.71-.11-9.69,5.11-19.47,10.03-29.11,15.24-37.99,20.53-75.94,41.15-113.9,61.74-5.66,3.07-11.29,6.18-16.95,9.26-1.4.76-2.28,1.73-2.27,3.5.06,8.03.03,16.05.03,24.08Z"/><path class="cls-1" d="M354.92,275.04c4.71-2.43,9.18-4.74,13.65-7.05,1.75-.9,3.5-1.79,5.22-2.74,1-.55,1.88-.43,2.85.1,9.51,5.2,19.03,10.39,28.55,15.57,5.9,3.21,11.82,6.38,17.71,9.6.39.22.81.73.87,1.15.68,4.68.78,9.38.02,14.07-.12.75-.38,1.5-.72,2.18-.69,1.39-1.76,1.94-3.21,1.41-2.38-.87-4.79-1.75-7.02-2.96-9.76-5.29-19.45-10.69-29.17-16.05-.67-.37-1.34-.73-2.19-1.19-.04.57-.11.97-.1,1.37.13,12.59.24,25.18.4,37.77.05,4.53-.14,9.01-1.19,13.45-.94,4-3.42,6.43-7.13,7.82-3.6,1.35-7.36,1.88-11.16,1.96-4.9.11-9.81.05-14.71.08-2.66.02-3.01.31-3.57,2.91-.87,4.04-1.88,8.1-1.05,12.26.83,4.14,1.73,8.29,4.54,11.69,1.14,1.38,1.57,2.99,1.53,4.82-.09,4.13-.02,8.27-.04,12.4,0,.91-.07,1.83-.24,2.72-.4,2.1-1.43,3.09-3.57,3.36-1.33.17-2.68.23-4.03.23-8.36.02-16.73.01-25.09,0-5.35,0-6.45-1.1-6.66-6.47-.13-3.17-.52-6.34-.44-9.5.05-2.12.4-4.34,1.15-6.3,2.67-6.97,3.83-14.16,3.76-21.59-.02-2.11,0-4.21,0-6.47h-99.57c-.04-.12-.08-.24-.12-.36,1.67-.94,3.34-1.88,5.02-2.81,1.13-.63,2.25-1.29,3.43-1.83.63-.29,1.36-.51,2.04-.51,28.07-.03,56.14-.03,84.22-.02.91,0,1.82.14,2.73.21,1.68.12,2.3-.32,2.23-1.99-.15-3.16-.55-6.31-.7-9.48-.16-3.35-.56-6.76-.1-10.04.67-4.8,2.94-9.21,5.76-13.03,3.16-4.29,7.96-5.66,13.17-4.31,5.29,1.36,8.6,5.01,9.47,10.32.56,3.42.32,6.99.22,10.48-.17,5.49.33,10.84,2.46,15.97.46,1.1,1.06,1.85,2.28,1.83,6.48-.08,12.97-.16,19.45-.3.95-.02,1.9-.29,2.83-.53,4.72-1.17,6.79-3.63,7.15-8.5.1-1.29.13-2.59.13-3.89,0-14.37-.05-28.74.02-43.11.01-2.35-.87-4-2.79-5.13-1.61-.95-3.32-1.72-4.98-2.59-4.37-2.29-8.73-4.59-13.29-6.98Z"/></svg>